<?xml version="1.0" encoding="UTF-8"?>
<svg id="Layer_1" data-name="Layer 1" xmlns="http://www.w3.org/2000/svg" viewBox="0 0 1500 423.55">
  <defs>
    <style>
      .cls-1 {
        fill: #6b9fec;
      }
    </style>
  </defs>
  <g>
    <path class="cls-1" d="m367.93,128.83C318.52,63.12,247.19,16.83,164.47,0c83.21,76.44-15.56,215.25-92.91,126.45C-51.17,207.22-7.18,401.89,136.21,422.73c41.5,6.04,54.03-23.52,80.01-9.79,20.38,11.52,50.09,13.74,72.32,5.35,106.69-43.34,148.24-195.7,79.39-289.45Zm-230.4,180.2c-22.6,0-40.92-18.32-40.92-40.92s18.32-40.92,40.92-40.92,40.9,18.32,40.9,40.92-18.31,40.92-40.9,40.92Zm126.83,0c-22.6,0-40.92-18.32-40.92-40.92s18.32-40.92,40.92-40.92,40.92,18.32,40.92,40.92-18.32,40.92-40.92,40.92Z"/>
    <circle class="cls-1" cx="147.22" cy="258.77" r="14.74"/>
    <circle class="cls-1" cx="274.05" cy="258.77" r="14.74"/>
  </g>
  <polygon class="cls-1" points="548.28 358.29 672.02 358.29 672.02 333.07 576.61 333.07 576.61 279.52 664.22 279.52 664.22 255.35 576.61 255.35 576.61 203.62 672.02 203.62 672.02 178.4 548.28 178.4 548.28 358.29"/>
  <path class="cls-1" d="m757.02,228.05c-34.57,0-58.23,22.36-58.23,55.37v74.87h26.77v-74.87c0-20.02,12.48-33.27,31.71-33.27s31.71,13.26,31.71,33.27v74.87h26.77v-74.87c0-33.01-23.91-55.37-58.75-55.37Z"/>
  <path class="cls-1" d="m948.61,248.07c-10.14-12.22-25.99-20.02-44.71-20.02-37.69,0-64.47,27.81-64.47,65.51s28.33,67.07,67.85,67.07,67.85-27.81,67.85-66.29v-115.94h-26.52v69.67Zm-41.07,89.43c-23.66,0-40.81-17.94-40.81-43.15s17.16-43.15,40.81-43.15,41.07,18.2,41.07,43.15-17.16,43.15-41.07,43.15Z"/>
  <path class="cls-1" d="m1064.04,228.05c-39.51,0-68.37,27.81-68.37,66.29s28.85,66.29,68.37,66.29,68.11-27.81,68.11-66.29-28.6-66.29-68.11-66.29Zm-.26,109.44c-23.66,0-40.81-17.94-40.81-43.15s17.16-43.15,40.81-43.15,41.07,18.2,41.07,43.15-17.16,43.15-41.07,43.15Z"/>
  <path class="cls-1" d="m1220.54,228.05c-39.51,0-67.85,27.81-67.85,66.29v115.94h26.52v-69.67c10.14,12.22,25.99,20.02,44.71,20.02,37.69,0,64.47-27.81,64.47-65.51s-28.34-67.07-67.85-67.07Zm-.26,109.44c-23.92,0-41.07-18.2-41.07-43.15s17.16-43.15,41.07-43.15,40.81,17.94,40.81,43.15-17.16,43.15-40.81,43.15Z"/>
  <path class="cls-1" d="m1373.91,228.05c-39.51,0-67.85,27.81-67.85,66.29s26.25,66.29,62.13,66.29c19.5,0,36.65-7.8,47.05-20.02v17.68h26.52v-63.95c0-38.47-28.33-66.29-67.85-66.29Zm.26,109.44c-23.66,0-40.81-17.94-40.81-43.15s17.16-43.15,40.81-43.15,41.07,18.2,41.07,43.15-17.16,43.15-41.07,43.15Z"/>
  <rect class="cls-1" x="1469.84" y="230.39" width="26.52" height="127.9"/>
  <path class="cls-1" d="m1483.1,211.41c9.88,0,16.9-6.5,16.9-15.6s-7.02-15.6-16.9-15.6-16.9,6.24-16.9,15.6,6.76,15.6,16.9,15.6Z"/>
</svg>